<?xml version="1.0" standalone="no"?>
<!DOCTYPE svg PUBLIC "-//W3C//DTD SVG 20010904//EN"
 "http://www.w3.org/TR/2001/REC-SVG-20010904/DTD/svg10.dtd">
<svg version="1.0" xmlns="http://www.w3.org/2000/svg"
 width="1024.000000pt" height="1024.000000pt" viewBox="0 0 1024.000000 1024.000000"
 preserveAspectRatio="xMidYMid meet">
<metadata>
Created by potrace 1.14, written by Peter Selinger 2001-2017
</metadata>
<g transform="translate(0.000000,1024.000000) scale(0.100000,-0.100000)"
fill="#000000" stroke="none">
<path d="M3864 10228 c-60 -10 -87 -23 -122 -59 -57 -58 -57 -62 -57 -569 1
-513 2 -527 61 -584 57 -55 93 -60 429 -61 l300 0 3 -337 c2 -314 1 -337 -15
-342 -10 -3 -76 -17 -148 -32 -167 -33 -147 -29 -244 -54 -47 -12 -92 -24
-100 -25 -9 -2 -16 -4 -16 -5 0 -1 -7 -3 -15 -5 -82 -18 -417 -144 -540 -202
-41 -20 -77 -37 -80 -37 -43 -9 -468 -258 -535 -313 -5 -5 -35 -26 -65 -48
-30 -22 -56 -43 -58 -47 -2 -5 -10 -8 -18 -8 -8 0 -14 -4 -14 -8 0 -4 -14 -16
-30 -26 -17 -9 -38 -25 -48 -35 -9 -9 -55 -49 -102 -88 -91 -76 -277 -256
-375 -363 -81 -88 -132 -148 -210 -245 -22 -27 -42 -52 -46 -55 -3 -3 -34 -45
-69 -95 -35 -49 -76 -107 -92 -127 -15 -20 -28 -39 -28 -42 0 -3 -21 -38 -47
-78 -27 -40 -53 -82 -59 -93 -45 -79 -144 -258 -144 -260 0 -2 -20 -45 -44
-97 -46 -99 -121 -286 -125 -311 0 -4 -7 -20 -15 -35 -40 -78 -148 -498 -172
-667 -2 -16 -5 -39 -8 -50 -2 -11 -7 -45 -11 -75 -4 -30 -9 -62 -10 -70 -2 -8
-6 -53 -10 -100 -3 -47 -9 -101 -11 -120 -6 -45 -6 -550 0 -610 2 -25 7 -79
11 -120 6 -68 38 -298 50 -360 3 -14 8 -41 11 -60 49 -279 181 -669 331 -975
82 -168 230 -415 326 -544 23 -31 45 -60 49 -66 5 -5 29 -39 55 -75 26 -36 52
-69 58 -75 6 -5 44 -49 84 -97 93 -112 361 -381 471 -472 47 -39 90 -75 96
-81 50 -43 102 -84 179 -140 50 -37 97 -72 105 -78 35 -28 244 -156 359 -219
271 -148 659 -298 936 -363 39 -9 97 -22 130 -30 96 -22 353 -59 485 -70 41
-3 93 -8 114 -11 97 -13 558 -6 711 11 22 2 66 7 99 10 32 4 68 8 80 10 11 3
70 11 131 20 141 21 343 67 470 107 55 17 106 33 113 34 21 4 231 83 279 105
24 10 45 19 47 19 2 0 47 20 100 45 53 25 98 45 100 45 3 0 75 39 212 115 74
41 88 50 108 67 11 10 23 18 28 18 22 0 345 233 422 304 6 6 38 33 71 61 133
110 396 371 498 495 34 41 70 84 80 95 24 26 148 191 173 230 10 17 21 32 25
35 3 3 23 32 44 65 21 33 58 90 82 127 23 37 43 71 43 77 0 5 3 11 7 13 8 3
24 32 93 168 84 165 204 450 235 560 7 25 24 83 38 130 39 131 99 405 113 515
3 28 8 53 9 56 2 3 7 41 10 85 3 43 8 90 10 104 15 95 23 589 11 700 -2 19 -7
76 -10 125 -4 50 -9 101 -11 115 -38 252 -80 464 -114 575 -10 33 -24 83 -31
110 -7 28 -17 56 -23 63 -5 6 -7 12 -3 12 5 0 -13 56 -35 105 -5 11 -18 47
-30 80 -67 185 -215 480 -338 675 -39 61 -71 113 -71 115 0 2 144 149 319 326
322 325 358 369 365 443 7 71 -20 106 -362 449 -350 351 -384 378 -464 371
-21 -2 -56 -13 -78 -24 -22 -11 -166 -147 -330 -310 -188 -188 -295 -288 -303
-283 -7 4 -59 44 -117 89 -58 45 -159 116 -225 159 -66 42 -132 85 -147 96
-15 10 -29 19 -32 19 -3 0 -44 23 -91 51 -47 28 -99 55 -116 61 -16 5 -29 14
-29 19 0 5 -5 9 -10 9 -6 0 -43 15 -83 34 -262 124 -596 238 -887 303 -87 19
-92 20 -131 28 -19 3 -52 9 -74 13 l-40 7 0 340 0 340 305 0 c320 1 354 5 413
48 15 12 37 41 50 66 22 46 22 49 22 526 0 531 2 517 -65 582 -60 59 -7 57
-1351 57 -680 1 -1254 -2 -1275 -6z m1747 -3531 c39 -18 98 -78 126 -129 17
-31 18 -108 18 -1618 0 -1345 -2 -1590 -14 -1620 -19 -46 -82 -105 -123 -115
-45 -11 -933 -13 -985 -3 -47 10 -109 63 -134 113 -12 26 -14 255 -17 1610
l-2 1579 25 53 c31 63 102 128 153 140 20 5 235 9 477 8 383 -1 445 -3 476
-18z"/>
</g>
</svg>
